<?xml version="1.0" encoding="UTF-8"?>
<svg width="24px" height="24px" viewBox="0 0 24 24" version="1.1" xmlns="http://www.w3.org/2000/svg" xmlns:xlink="http://www.w3.org/1999/xlink">
    <title>audio_upload_icon</title>
    <g id="Page-1" stroke="none" stroke-width="1" fill="none" fill-rule="evenodd">
        <g id="audio_upload_icon">
            <polygon id="Path" points="0 0 24 0 24 24 0 24"></polygon>
            <path d="M20,2 L8,2 C6.9,2 6,2.9 6,4 L6,16 C6,17.1 6.9,18 8,18 L20,18 C21.1,18 22,17.1 22,16 L22,4 C22,2.9 21.1,2 20,2 Z M20,16 L8,16 L8,4 L20,4 L20,16 Z M12.5,15 C13.88,15 15,13.88 15,12.5 L15,7 L18,7 L18,5 L14,5 L14,10.51 C13.58,10.19 13.07,10 12.5,10 C11.12,10 10,11.12 10,12.5 C10,13.88 11.12,15 12.5,15 Z M4,6 L2,6 L2,20 C2,21.1 2.9,22 4,22 L18,22 L18,20 L4,20 L4,6 Z" id="Shape" fill="#A5A5A5" fill-rule="nonzero"></path>
        </g>
    </g>
</svg>